<svg width="25" height="25" viewBox="0 0 25 25" fill="none" xmlns="http://www.w3.org/2000/svg">
<path d="M7.2916 8.3334C7.2916 9.48391 6.35891 10.4166 5.2084 10.4166C4.05769 10.4166 3.125 9.48391 3.125 8.3334C3.125 7.18269 4.05769 6.25 5.2084 6.25C6.35891 6.25 7.2916 7.18269 7.2916 8.3334Z" fill="white"/>
<path d="M21.875 3.125H3.125C1.40209 3.125 0 4.52709 0 6.25V18.75C0 18.8084 0.0144959 18.8635 0.0177383 18.9219C0.00305176 19.0468 0.009346 19.1729 0.0551224 19.2917C0.312424 20.7563 1.58749 21.875 3.125 21.875H21.875C23.5979 21.875 25 20.4729 25 18.75V6.25C25 4.52709 23.5979 3.125 21.875 3.125ZM3.125 5.2084H21.875C22.4489 5.2084 22.9166 5.67608 22.9166 6.25V14.5199L17.4376 9.04064C16.725 8.32806 15.5657 8.32806 14.8542 9.04064L9.8959 13.999L8.58326 12.6865C7.87086 11.974 6.71139 11.974 5.99995 12.6865L2.0834 16.6031V6.25C2.0834 5.67608 2.55108 5.2084 3.125 5.2084Z" fill="white"/>
</svg>
